# xmcd
#
# Track frame offsets: 
#        150
#        13369
#        32033
#        54449
#        66000
#        80545
#        93810
#        107401
#        121393
#        133098
#        150867
#
# Disc length: 2331 seconds
#
# Revision: 0
# Processed by: cddbd v1.5.2PL0 Copyright (c) Steve Scherf et al.
# Submitted via: ExactAudioCopy v0.99pb5
#
DISCID=8109190b
DTITLE=Patrick Sweany - I Wanna Tell You
DYEAR=1999
DGENRE=Blues
TTITLE0=Bring the Money Home
TTITLE1=Everyday is Saturday Night
TTITLE2=I Wanna Tell You
TTITLE3=Sleepy Town
TTITLE4=Blue All the Time
TTITLE5=Chelsea Swing
TTITLE6=Reel and Rock
TTITLE7=Always Thinking of You
TTITLE8=All Night Boogie
TTITLE9=Soutrhern Blues
TTITLE10=Back to Arkansas
EXTD=
EXTT0=
EXTT1=
EXTT2=
EXTT3=
EXTT4=
EXTT5=
EXTT6=
EXTT7=
EXTT8=
EXTT9=
EXTT10=
PLAYORDER=
